<?xml version="1.0" encoding="UTF-8" standalone="no"?>
<!-- Created with Inkscape (http://www.inkscape.org/) -->
<svg xmlns:inkscape="http://www.inkscape.org/namespaces/inkscape" xmlns:rdf="http://www.w3.org/1999/02/22-rdf-syntax-ns#" xmlns="http://www.w3.org/2000/svg" xmlns:sodipodi="http://sodipodi.sourceforge.net/DTD/sodipodi-0.dtd" xmlns:ns1="http://sozi.baierouge.fr" xmlns:cc="http://creativecommons.org/ns#" xmlns:xlink="http://www.w3.org/1999/xlink" xmlns:dc="http://purl.org/dc/elements/1.1/" id="svg2" viewBox="0 0 538.77 908.38" version="1.1" inkscape:version="0.91 r13725">
  <title id="title3178">Robin Fox</title>
  <defs id="defs4">
    <radialGradient id="radialGradient3106" gradientUnits="userSpaceOnUse" cy="852.63" cx="2950.2" gradientTransform="matrix(.98968 -.14332 .060387 .41699 -2547.9 346.76)" r="131.19">
      <stop id="stop5865" style="stop-color:#923b00" offset="0"/>
      <stop id="stop5867" style="stop-color:#923b00" offset="1"/>
    </radialGradient>
    <filter id="filter3158" height="1" width="1" color-interpolation-filters="sRGB" y="0" x="0">
      <feColorMatrix id="feColorMatrix3160" type="saturate" values="1" result="result91"/>
      <feComposite id="feComposite3162" in2="result91" k3="0.3" k2="0.4" k1="0.3" result="result15" k4="0" operator="arithmetic"/>
      <feGaussianBlur id="feGaussianBlur3164" stdDeviation="5" result="result8" in="result15"/>
      <feComposite id="feComposite3166" operator="in" result="result13" in2="result8"/>
      <feComposite id="feComposite3168" in="result15" in2="result13" k3="0.3" k2="0.4" k1="0.3" result="result6" k4="0" operator="arithmetic"/>
      <feFlood id="feFlood3170" flood-color="rgb(128,172,0)" result="result10" in="result6"/>
      <feBlend id="feBlend3172" result="result12" mode="darken" in2="result10" in="result6"/>
      <feBlend id="feBlend3174" mode="screen" in2="result6" result="result14"/>
      <feComposite id="feComposite3176" operator="in" result="result2" in2="SourceGraphic" in="result14"/>
    </filter>
  </defs>
  <g id="layer1" transform="translate(-102.65 -71.99)">
    <g id="g3121" style="filter:url(#filter3158)">
      <path id="path5898" style="stroke-opacity:.58039;stroke:#210703;stroke-width:1px;fill:#522100" d="m457.8 832.54c-38.997 3.8925-67.88-47.7-53.022-83.965 15.977-38.996 73.725-57.01 98.626-23.011 24.451 33.385-4.427 102.87-45.604 106.98z"/>
      <path id="path5895" style="stroke-opacity:.58039;stroke:#1a0505;stroke-width:1px;fill:#923b00" d="m352.44 607.75c-47.246 36.386-111.15 68.924-74.888 168.92 0.6518 44.242-22.898 63.044-49.396 94.682 3.0885 28.568 33.44 45.246 56.956 43.967 52.795-53.889 111.22-110.48 135.52-185.51 20.909-9.3253 38.834 80.284 77.796 99.153 3.3714 15.679 6.3611 34.612 7.0866 72.845 20.58 10.113 31.289 28.283 72.908-16.946 15.796-47.546 34.85-93.065 35.128-150.98 2.5493-35.093-7.2792-76.454-63.987-141.55-74.082 30.428-139.7 35.287-197.12 15.427z"/>
      <path id="path5901" style="stroke-opacity:.58039;stroke:#183229;stroke-width:1px;fill:#445500" d="m305.36 911.62c-2.1388 5.6607-10.813 8.2204-23.713 12.281 0.5496 15.434-6.3782 27.27-15.372 38.332-93.189 0.7645-111.98-41.203-140.33-81.62 21.469-16.215 40.762-8.3003 59.38 7.1104 19.118 10.596 31.365 13.882 38.107 11.313 4.4294-6.5107-7.5462-23.692 2.3692-39.288 12.122 46.089 37.281 53.126 79.56 51.872z"/>
      <path id="path5903" style="stroke-opacity:.82353;stroke:#112d20;stroke-width:1px;fill:#445500" d="m500.69 891.98c12.36 20.995 20.972 41.03 49.73 52.831 10.485 41.121 45.283 38.017 80.155 30.471-5.5018-28.921-18.793-52.342-39.399-70.598-5.6949-4.599-5.709-18.781-1.8036-39.574-36.156 49.777-65.145 55.191-88.683 26.869z"/>
      <path id="path5889" style="stroke-opacity:.58039;stroke:#2f4105;stroke-width:1px;fill:#668000" d="m288.41 629.97c115.76 103.45 219.06 74.52 315.31 2.1206-88.567-85.182-111.03-162.36-77.492-199 7.7205 7.8305 13.048 11.916 18.633 14.99 20.341-28.136 40.241-63.262 65.068-65.71-36.981-27.48-83.086-82.179-104.88-70.031-27.924-16.296-55.943 78.855-98.591 72.288-14.697-4.1834-20.051-13.471-29.759-25.023-9.3787-11.161-15.547-31.417-22.927-45.442-10.73-8.2316-39.224-36.877-62.826-59.792-8.2815 36.442-29.493 79.552-21.314 108.92 14.514 4.238 10.751 4.1644 30.988 16.737 47.264 182.41-1.3877 176.43-12.204 249.94z"/>
      <path id="path5892" style="stroke-opacity:.58039;stroke:#340c00;stroke-width:1px;fill:#445500" d="m320.25 529.3c-18.111 8.5173-16.472 25.255-11.321 34.181 24.804 91.248 195.2 83.084 246.83 11.383-3.1522-13.124-10.281-14.242-15.432-21.33-81.145 72.881-205.76 50.232-220.08-24.234z"/>
      <path id="path5882" style="stroke-opacity:.58039;stroke:#1d0c07;stroke-width:1px;fill:#923b00" d="m195.87 113.38c5.4145-28.03-15.766-38.42-31.45-40.891-21.636 2.7604-38.806 10.495-53.318 21.187-8.521 9.9947-9.5384 16.451-6.1151 25.572 1.2559 5.3531 13.07 13.999 20.283 12.347 13.452 17.488 25.219 11.411 29.79 35.104 19.314 57.131 61.953 119.48 113.59 183.85 9.3738-15.707 17.286-39.047 20.564-86.575-10.2 5.872-60.981-81.951-80.329-120.78-3.157-6.0695 0.4497-25.862-13.014-29.815z"/>
      <path id="path5884" style="stroke-opacity:.86715;stroke:#220e07;stroke-width:1px;fill:#923b00" d="m606.29 386.19c-14.693-9.1934-39.614 25.54-56.905 54.528 10.278-2.7705 18.192-5.6669 17.198 0.5952-3.6847 16.617-20.069 35.074-46.46 54.979-22.854 7.9976-26.316 31.542-11.753 54.441 15.396 18.785 49.353 26.37 53.293-13.609 19.745-16.045 35.081-28.332 63.293-60.783 7.5686-14.764 20.379-30.315 14.476-47.261-0.068-12.267-12.129-29.383-33.142-42.89z"/>
      <path id="path5809" style="stroke-opacity:.58039;stroke:#531c02;stroke-width:1.2152px;fill:#9d3900" d="m343.35 266.24c-27.2-32.46-36.595-118.9 73.902-124.49 92.793-4.6953 110.02 130.35 77.602 141.84-34.299 12.159-54.944 3.5068-69.206 3.5119-54.546 0.0194-65.491-0.81155-82.298-20.868z"/>
      <path id="path5777" style="stroke-opacity:.58039;stroke:#b06426;stroke-width:1px;fill:#9d3900" d="m324.12 247.56c15.157 7.986 2.7337-41.895 12.225-50.429 21.731-19.54 25.848-37.389 13.318-50.548-14.723-15.462-38.713-27.417-51.576-16.919-30.664 25.024-11.924 97.898 26.034 117.9z"/>
      <path id="path5779" style="stroke-opacity:.58039;stroke:#f5b17a;stroke-width:1px;fill:#a55f24" d="m329.6 221.3c-0.039-45.53 15.416-27.803 9.5286-54.74-6.0159-27.525-32.462-29.532-38.297-20.638-19.397 29.565 28.773 79.867 28.769 75.377z"/>
      <path id="path5804" style="stroke-opacity:.58039;stroke:#b06426;stroke-width:.94471px;fill:#9d3900" d="m505.94 246.13c-16.188 2.5894-6.7219-47.093-14.481-56.226-17.765-20.911-5.2702-27.979 7.7386-39.366 12.029-10.53 33.347-19.919 42.33-10.295 27.241 29.184 11.995 98.276-35.588 105.89z"/>
      <path id="path5806" style="stroke-opacity:.58039;stroke:#f5b17a;stroke-width:.94471px;fill:#a55f24" d="m508.58 223.1c-7.9634-31.383-3.2947-36.962 2.8915-45.071 10.687-14.01 30.432-16.746 31.246-10.854 5.8137 42.084-31.901 64.739-34.137 55.925z"/>
      <path id="path5811" style="stroke:#d38f56;stroke-width:1px;fill:url(#radialGradient3106)" d="m555.21 280.41c-0.66-50.19-100.87-25.54-138.88-1.65-79.62-37.88-104.94-49.21-123.64-28.22-6.4008 7.849-4.5281 21.499 5.3351 32.005 30.225 50.509 259.23 69.872 257.19-2.1356z"/>
      <path id="path5816" style="stroke:#b7b7b7;stroke-width:1px;fill:#ffffff" d="m340.48 290.94c-2.7539-23.14 64.208 24.242 130.98-5.0825 34.009-14.936 17.879 85.579-64.824 103.02-17.187 3.6234-63.178-72.928-66.154-97.933z"/>
      <path id="path5738" style="stroke-opacity:.58039;stroke:#999d98;stroke-width:1px;fill:#000000" d="m420.98 311.39c-11.957 1.5745-16.674-1.9428-19.816-5.207-41.174-42.776 39.999-23.972 41.002-11.601 0.9527 11.75-12.66 15.685-21.187 16.808z"/>
      <path id="path5740" style="fill:#ffffff" d="m406.79 311.45c0.3786-2.9813 1.3933-6.2779 3.0097-7.9822 1.9121 2.7906 2.292 6.3117 2.664 9.15-2.4541 0.66459-4.0032 0.32509-5.6737-1.1678z"/>
      <path id="path5720" style="stroke-opacity:.52941;fill-opacity:.52941;stroke:#370800;stroke-width:1px;fill:#d7a168" d="m377.91 204.94c9.2398-4.114 21.338 2.9125 24.488 14.127 7.9598 28.337-13.928 38.268-29.666 29.544-15.131-8.3877-8.2455-37.694 5.1773-43.671z"/>
      <path id="path5726" style="stroke-opacity:.52941;fill-opacity:.52941;stroke:#7f3c00;stroke-width:.59301px;fill:#d5a13b" d="m381.65 221.72c10.694-3.8517 17.837 3.0174 17.449 17.617-0.2594 9.7754-13.607 14.884-22.018 9.7809-5.9559-3.6138-7.2104-23.155 4.5688-27.398z"/>
      <path id="path5660" style="stroke:#222b00;stroke-width:1px;fill:#668000" d="m373.26 150.16c19.389-55.017 34.058-59.188 49.293-60.939 15.315-1.7567 27.674 17.33 39.912 37.265-12.479 3.2347-16.756 14.815-21.81 24.036-24.921 4.3814-37.826 5.8684-67.395-0.36211z"/>
      <path id="path5662" style="stroke:#222b00;stroke-width:1px;fill:#668000" d="m450.39 144.15c5.5-0.53244 10.701 0.0703 14.529 5.891-0.3166 1.957-0.1252 4.1912-7.5244 2.2819-8.8693-0.63854-7.4527-4.5603-7.0044-8.1729z"/>
      <path id="path5666" style="stroke:#550000;stroke-width:1px;fill:#de8787" d="m463.12 126.95c8.1428 4.3979 3.654 8.6792 11.746 13.307 5.0963-1.9881 8.7009-0.84191 11.508 1.9803-1.5982 1.9086-3.063 5.1972-2.1094 9.648-5.8972 3.9816-13.925 3.6-21.717 1.6503 5.3907-4.3435-2.015-10.731-10.606-9.7843-1.7155 1.3162-3.4164 2.7135-0.01 7.9143l-11.224-1.272c7.2704-16.511 15.372-23.391 22.413-23.444z"/>
      <path id="path5658" style="stroke:#222b00;stroke-width:1px;fill:#445500" d="m396.02 149.79c-9.9042 0.77203-5.1566-2.6488-31.12 1.5313-5.6711-11.079-11.237-18.008-16.662-16.432-5.6768 4.9482-2.3373 11.302-1.466 17.272 3.6453 10.051 7.2204 15.91 14.752 19.684 3.9425 2.4541 9.6014 2.6104 15.275 2.747 41.29-4.1532 50.996-4.3932 86.148-0.9707 7.0293 0.10011 13.893 0.42251 23.067-2.3487 12.502-7.9276 21.528-18.393 23.931-29.253-3.2619-11.194-19.403 5.5694-23.83 9.402-5.6121 2.2188-13.219 2.9473-21.788 2.957-15.13-4.422-31.939-4.2572-68.306-4.5885z"/>
      <path id="path5674" style="fill-opacity:.58039;stroke:#502d16;stroke-width:1px;fill:#d99f64" d="m440.04 248.35c-15.139-13.61-2.5778-45.963 12.991-44.529 15.04 1.3845 26.316 9.3494 22.952 39.324-0.6475 5.7697-28.049 12.303-35.943 5.2053z"/>
      <path id="path5742" style="fill:#ffffff" d="m420.69 311.82c0.409-2.7712 0.782-5.3625 2.8397-7.7859 1.8802 2.5704 2.8954 4.6566 3.2373 7.2873-2.4573 0.64239-4.4245 1.867-6.077 0.4986z"/>
      <path id="path5814" style="stroke:#b3b3b3;stroke-width:1px;fill:#ffffff" d="m378.12 294.24c24.458-11.282 19.669 43.379 66.836 3.2245 11.931-10.157 10.091 27.492-16.213 35.833-20.934 6.638-74.78-27.914-50.622-39.058z"/>
      <path id="path5728" style="stroke-opacity:.52941;stroke:#3c1906;stroke-width:1px;fill:#ffffff" d="m371.53 284.76c-5.5078-16.414 19.442-43.284 45.49-24.15 11.167-13.471 35.574-11.309 48.383 15.303 16.341 33.949-86.142 28.27-93.873 8.8468z"/>
      <path id="path5682" style="stroke-opacity:.58039;stroke:#3c1603;stroke-width:1px;fill:#000000" d="m419.89 277.83c-7.3507 0.64476-12.757 0.29952-20.5-10.536-10.7-14.974 37.76-19.067 38.763-6.6964 0.9527 11.75-9.6958 16.481-18.264 17.232z"/>
      <path id="path5724" style="fill:#101010" d="m382.24 231.6c4.7138-2.6659 17.193-0.94133 16.861 7.7436-0.3601 9.4309-14.707 14.303-22.018 9.7809-4.9513-3.0623-3.6687-12.533 5.1571-17.525z"/>
      <path id="path5722" style="fill:#ffffff" d="m383.76 235.31c3.6828-2.2791 14.759-1.948 15.874 4.8008 1.5379 9.3116-14.805 14.458-22.018 9.7809-4.7858-3.1034 0.045-10.807 6.1443-14.582z"/>
      <path id="path5718" style="stroke:#000000;stroke-width:.59301px;fill:#000000" d="m386.53 237.99c2.7421-1.6392 11.01 0.18781 10.554 4.87-0.5034 5.1705-6.3979 9.0869-11.366 5.8538-4.1566-2.7053-3.8466-7.9389 0.812-10.724z"/>
      <path id="path5730" style="stroke-opacity:.58039;fill-opacity:.58039;stroke:#995b2f;stroke-width:.70745px;fill:#dea53b" d="m441.37 248.96c-9.7681-10.104-3.9408-27.401 6.6826-28.11 9.328-0.62292 20.273 8.3788 16.498 23.491-1.1222 4.4919-17.982 9.9969-23.18 4.6193z"/>
      <path id="path5732" style="fill:#101010" d="m441.37 248.96c-7.9588-9.1579-0.6648-16.701 5.786-17.864 6.8064-1.2267 17.736 3.0165 14.477 12.278-1.5367 4.3675-15.357 11.231-20.263 5.5854z"/>
      <path id="path5734" style="fill:#ffffff" d="m441.76 247.54c-5.3615-9.1794 0.9654-13.893 5.9978-14.949 6.2001-1.3014 12.204 1.9585 12.215 9.7305 0.01 4.63-14.44 11.677-18.213 5.2183z"/>
      <path id="path5736" style="fill:#000000" d="m441.94 248.49c-4.416-5.0297 1.6047-9.9366 4.6623-10.127 7.1252-0.44292 6.4083 1.7147 7.4448 4.8808 1.8717 5.7177-6.7004 11.404-12.107 5.2458z"/>
    </g>
  </g>
  <metadata>
    <rdf:RDF>
      <cc:Work>
        <dc:format>image/svg+xml</dc:format>
        <dc:type rdf:resource="http://purl.org/dc/dcmitype/StillImage"/>
        <cc:license rdf:resource="http://creativecommons.org/licenses/publicdomain/"/>
        <dc:publisher>
          <cc:Agent rdf:about="http://openclipart.org/">
            <dc:title>Openclipart</dc:title>
          </cc:Agent>
        </dc:publisher>
      </cc:Work>
      <cc:License rdf:about="http://creativecommons.org/licenses/publicdomain/">
        <cc:permits rdf:resource="http://creativecommons.org/ns#Reproduction"/>
        <cc:permits rdf:resource="http://creativecommons.org/ns#Distribution"/>
        <cc:permits rdf:resource="http://creativecommons.org/ns#DerivativeWorks"/>
      </cc:License>
    </rdf:RDF>
  </metadata>
</svg>
