<?xml version="1.0" encoding="iso-8859-1"?>
<!-- Generator: Adobe Illustrator 19.0.0, SVG Export Plug-In . SVG Version: 6.00 Build 0)  -->
<svg version="1.1" id="Capa_1" xmlns="http://www.w3.org/2000/svg" xmlns:xlink="http://www.w3.org/1999/xlink" x="0px" y="0px"
	 viewBox="0 0 464.021 464.021" style="enable-background:new 0 0 464.021 464.021;" xml:space="preserve">
<path style="fill:#EACAB5;" d="M356.01,352.021h32v43.336h-32V352.021z"/>
<path style="fill:#F6BB92;" d="M84.01,346.021h32v49.336h-32V346.021z"/>
<path style="fill:#FDC9A6;" d="M100.01,360.021c-17.673,0-32-14.327-32-32v-40l32-16l32,16v40
	C132.01,345.694,117.684,360.021,100.01,360.021z"/>
<path style="fill:#6CBAE5;" d="M52.01,376.021h96c17.673,0,32,14.327,32,32v56l0,0h-160l0,0v-56
	C20.01,390.348,34.337,376.021,52.01,376.021z"/>
<g>
	<path style="fill:#FDC9A6;" d="M20.01,424.021h32v40h-32V424.021z"/>
	<path style="fill:#FDC9A6;" d="M148.01,424.021h32v40h-32V424.021z"/>
</g>
<path style="fill:#EA6B65;" d="M324.01,376.021h96c17.673,0,32,14.327,32,32v56l0,0h-160l0,0v-56
	C292.01,390.348,306.337,376.021,324.01,376.021z"/>
<g>
	<path style="fill:#F9D7C0;" d="M292.01,424.021h32v40h-32V424.021z"/>
	<path style="fill:#F9D7C0;" d="M420.01,424.021h32v40h-32V424.021z"/>
</g>
<path style="fill:#683F2B;" d="M148.01,248.021c-14.534-9.687-33.466-9.687-48,0l-9.8-1.6
	c-21.292-3.545-41.557,10.442-45.792,31.608c-0.618,3.293-0.755,6.659-0.408,9.992l24,40v-32l32-16
	c18.364,13.769,44.058,11.941,60.288-4.288l11.712-11.712L148.01,248.021z"/>
<g>
	<path style="fill:#F3AF3E;" d="M156.01,168.021h16v16h-16V168.021z"/>
	<path style="fill:#F3AF3E;" d="M228.01,224.021h16v16h-16V224.021z"/>
	<path style="fill:#F3AF3E;" d="M428.01,184.021h16v16h-16V184.021z"/>
	<path style="fill:#F3AF3E;" d="M12.01,192.021h16v16h-16V192.021z"/>
</g>
<path style="fill:#B3E4E8;" d="M290.01,0.021h-208c-30.233,0.878-54.222,25.755-54,56v24c0,35.346,28.654,64,64,64v40l56-40h136
	c35.346,0,64-28.654,64-64v-24c-0.245-31.183-25.722-56.264-56.905-56.019C290.74,0.005,290.375,0.011,290.01,0.021z"/>
<path style="fill:#8ACED8;" d="M372.01,32.021h-136c-26.51,0-48,21.49-48,48v48c0,26.51,21.49,48,48,48l56,40v-40h80
	c26.51,0,48-21.49,48-48v-48C420.01,53.511,398.52,32.021,372.01,32.021z"/>
<path style="fill:#6FBBC6;" d="M188.01,80.021v48c0.01,5.454,0.955,10.865,2.792,16h93.208c35.346,0,64-28.654,64-64v-24
	c-0.003-8.313-1.884-16.517-5.504-24H236.01C209.501,32.021,188.01,53.511,188.01,80.021z"/>
<path style="fill:#B94137;" d="M252.01,120.021c-2.122,0-4.156-0.844-5.656-2.344l-16-16c-3.069-3.178-2.982-8.243,0.196-11.312
	c3.1-2.994,8.015-2.994,11.116,0l10.344,10.344l34.344-34.344c3.178-3.069,8.242-2.982,11.312,0.196c2.994,3.1,2.994,8.015,0,11.116
	l-40,40C256.167,119.177,254.132,120.021,252.01,120.021z"/>
<path style="fill:#F9D7C0;" d="M372.01,360.021c-17.673,0-32-14.327-32-32l-0.728-38.984l56.728-17.016l8,6v50
	C404.01,345.694,389.684,360.021,372.01,360.021z"/>
<path style="fill:#EA9D2D;" d="M428.01,304.021l-32-24l-80,24v-24c0-30.928,25.072-56,56-56s56,25.072,56,56V304.021z"/>
<g>
</g>
<g>
</g>
<g>
</g>
<g>
</g>
<g>
</g>
<g>
</g>
<g>
</g>
<g>
</g>
<g>
</g>
<g>
</g>
<g>
</g>
<g>
</g>
<g>
</g>
<g>
</g>
<g>
</g>
</svg>
