<?xml version="1.0" encoding="iso-8859-1"?>
<!-- Generator: Adobe Illustrator 19.0.0, SVG Export Plug-In . SVG Version: 6.00 Build 0)  -->
<svg version="1.1" id="Capa_1" xmlns="http://www.w3.org/2000/svg" xmlns:xlink="http://www.w3.org/1999/xlink" x="0px" y="0px"
	 viewBox="0 0 472 472" style="enable-background:new 0 0 472 472;" xml:space="preserve">
<path style="fill:#A8A8A8;" d="M92,8h120v64H92V8z"/>
<path style="fill:#B9B9B9;" d="M148,72h16v40h-16V72z"/>
<path style="fill:#A8A8A8;" d="M156,448c-4.418,0.004-8.003-3.574-8.007-7.993c-0.003-3.278,1.994-6.226,5.039-7.439l140.176-56.072
	L153.36,327.552c-4.172-1.456-6.373-6.018-4.917-10.189c0.763-2.187,2.438-3.937,4.589-4.795L294.464,256l-141.432-56.568
	c-0.325-0.129-0.641-0.282-0.944-0.456c-1.477-0.828-2.652-2.106-3.352-3.648c-0.136-0.293-0.251-0.595-0.344-0.904
	c-0.477-1.481-0.505-3.071-0.08-4.568c0.146-0.516,0.341-1.017,0.584-1.496c0.877-1.714,2.342-3.055,4.128-3.776l160-64
	c4.103-1.64,8.758,0.356,10.398,4.459c0.001,0.002,0.001,0.003,0.002,0.005c0.38,0.938,0.576,1.94,0.576,2.952
	c0.004,3.276-1.989,6.224-5.032,7.44L177.536,192l141.432,56.568c4.105,1.635,6.107,6.288,4.471,10.393
	c-0.813,2.041-2.43,3.658-4.471,4.471l-140.176,56.072l139.848,48.944c4.172,1.456,6.373,6.018,4.917,10.189
	c-0.763,2.187-2.438,3.937-4.589,4.795l-160,64C158.024,447.811,157.017,448.004,156,448L156,448z"/>
<g>
	<path style="fill:#3B869E;" d="M140,104h32v368h-32V104z"/>
	<path style="fill:#3B869E;" d="M300,104h32v368h-32V104z"/>
</g>
<circle style="fill:#FBB540;" cx="316" cy="104" r="72"/>
<circle style="fill:#EA9D2D;" cx="316" cy="104" r="48"/>
<circle style="fill:#69B0BB;" cx="156" cy="200" r="64"/>
<circle style="fill:#3B869E;" cx="156" cy="200" r="40"/>
<path style="fill:#787D82;" d="M212,0H92c-4.418,0-8,3.582-8,8v64c0,4.418,3.582,8,8,8h120c4.418,0,8-3.582,8-8V8
	C220,3.582,216.418,0,212,0z M204,32h-24V16h24V32z M140,32V16h24v16H140z M164,48v16h-24V48H164z M124,16v16h-24V16H124z M100,48
	h24v16h-24V48z M180,64V48h24v16H180z"/>
<path style="fill:#FBB540;" d="M140,424H92V304h48V424z"/>
<circle style="fill:#69B0BB;" cx="316" cy="376" r="64"/>
<circle style="fill:#3B869E;" cx="316" cy="376" r="40"/>
<g>
</g>
<g>
</g>
<g>
</g>
<g>
</g>
<g>
</g>
<g>
</g>
<g>
</g>
<g>
</g>
<g>
</g>
<g>
</g>
<g>
</g>
<g>
</g>
<g>
</g>
<g>
</g>
<g>
</g>
</svg>
