<?xml version="1.0" encoding="iso-8859-1"?>
<!-- Generator: Adobe Illustrator 19.0.0, SVG Export Plug-In . SVG Version: 6.00 Build 0)  -->
<svg version="1.1" id="Capa_1" xmlns="http://www.w3.org/2000/svg" xmlns:xlink="http://www.w3.org/1999/xlink" x="0px" y="0px"
	 viewBox="0 0 432 432" style="enable-background:new 0 0 432 432;" xml:space="preserve">
<circle style="fill:#5E8569;" cx="216" cy="216" r="216"/>
<circle style="fill:#BDE1E2;" cx="216" cy="216" r="184"/>
<path style="fill:#AACACB;" d="M400,216c0.012-70.977-40.8-135.632-104.88-166.152L216,216l130.104,130.104
	C380.668,311.637,400.065,264.812,400,216z"/>
<g>
	<path style="fill:#6B9777;" d="M216,264c-26.51,0-48-21.49-48-48s21.49-48,48-48s48,21.49,48,48
		C263.974,242.499,242.499,263.974,216,264z M216,184c-17.673,0-32,14.327-32,32s14.327,32,32,32s32-14.327,32-32
		S233.673,184,216,184z"/>
	<path style="fill:#6B9777;" d="M216,312c-53.019,0-96-42.981-96-96s42.981-96,96-96s96,42.981,96,96
		C311.943,268.996,268.996,311.943,216,312z M216,136c-44.183,0-80,35.817-80,80s35.817,80,80,80s80-35.817,80-80
		C295.952,171.837,260.163,136.048,216,136z"/>
	<path style="fill:#6B9777;" d="M216,360c-79.529,0-144-64.471-144-144S136.471,72,216,72s144,64.471,144,144
		C359.907,295.491,295.491,359.907,216,360z M216,88c-70.692,0-128,57.308-128,128s57.308,128,128,128s128-57.308,128-128
		C343.916,145.342,286.658,88.084,216,88z"/>
	<path style="fill:#6B9777;" d="M216,408c-106.039,0-192-85.961-192-192S109.961,24,216,24s192,85.961,192,192
		C407.877,321.987,321.987,407.877,216,408z M216,40c-97.202,0-176,78.798-176,176s78.798,176,176,176s176-78.798,176-176
		C391.89,118.844,313.156,40.11,216,40z"/>
</g>
<circle style="fill:#8DC79D;" cx="344" cy="256" r="16"/>
<path style="fill:#85BC94;" d="M344,280c-13.255,0-24-10.745-24-24s10.745-24,24-24s24,10.745,24,24S357.255,280,344,280z M344,248
	c-4.418,0-8,3.582-8,8s3.582,8,8,8s8-3.582,8-8S348.418,248,344,248z"/>
<g>
	<circle style="fill:#8DC79D;" cx="80" cy="216" r="8"/>
	<circle style="fill:#8DC79D;" cx="152" cy="280" r="8"/>
	<circle style="fill:#8DC79D;" cx="320" cy="128" r="16"/>
</g>
<path style="fill:#85BC94;" d="M320,152c-13.255,0-24-10.745-24-24s10.745-24,24-24s24,10.745,24,24S333.255,152,320,152z M320,120
	c-4.418,0-8,3.582-8,8s3.582,8,8,8s8-3.582,8-8S324.418,120,320,120z"/>
<circle style="fill:#8DC79D;" cx="296" cy="200" r="16"/>
<path style="fill:#85BC94;" d="M296,224c-13.255,0-24-10.745-24-24s10.745-24,24-24s24,10.745,24,24S309.255,224,296,224z M296,192
	c-4.418,0-8,3.582-8,8s3.582,8,8,8s8-3.582,8-8S300.418,192,296,192z"/>
<g>
</g>
<g>
</g>
<g>
</g>
<g>
</g>
<g>
</g>
<g>
</g>
<g>
</g>
<g>
</g>
<g>
</g>
<g>
</g>
<g>
</g>
<g>
</g>
<g>
</g>
<g>
</g>
<g>
</g>
</svg>
