<?xml version="1.0" encoding="iso-8859-1"?>
<!-- Generator: Adobe Illustrator 19.0.0, SVG Export Plug-In . SVG Version: 6.00 Build 0)  -->
<svg version="1.1" id="Capa_1" xmlns="http://www.w3.org/2000/svg" xmlns:xlink="http://www.w3.org/1999/xlink" x="0px" y="0px"
	 viewBox="0 0 472 472" style="enable-background:new 0 0 472 472;" xml:space="preserve">
<path style="fill:#CDCDCD;" d="M240,36H56c-17.673,0-32,14.327-32,32v80c0,17.673,14.327,32,32,32h144l40,40v-40
	c17.673,0,32-14.327,32-32V68C272,50.327,257.673,36,240,36z"/>
<path style="fill:#787D82;" d="M160,396c-4.418-0.001-7.999-3.583-7.998-8.002c0-2.121,0.843-4.154,2.342-5.654L164.688,372
	l-10.344-10.344c-3.123-3.124-3.123-8.188,0-11.312L164.688,340l-10.344-10.344c-3.123-3.124-3.123-8.188,0-11.312l6.584-6.592
	c-0.611-1.156-0.93-2.444-0.928-3.752v-24c0-4.418,3.582-8,8-8s8,3.582,8,8v16c4.418,0.001,7.999,3.583,7.998,8.002
	c0,2.121-0.843,4.154-2.342,5.654L171.312,324l10.344,10.344c3.123,3.124,3.123,8.188,0,11.312L171.312,356l10.344,10.344
	c3.123,3.124,3.123,8.188,0,11.312l-16,16C164.156,395.156,162.122,396,160,396L160,396z"/>
<path style="fill:#3B869E;" d="M320,364h-14.112c-9.097,0.028-17.42-5.115-21.464-13.264l-10.736-21.472
	c-4.046-8.147-12.367-13.29-21.464-13.264H8c-4.418,0-8-3.582-8-8s3.582-8,8-8h244.224c15.164-0.049,29.038,8.526,35.776,22.112
	l10.736,21.464c1.344,2.719,4.119,4.436,7.152,4.424H320c4.418,0,8-3.582,8-8v-32c0-4.418,3.582-8,8-8s8,3.582,8,8v32
	C344,353.255,333.255,364,320,364L320,364z"/>
<g>
	<path style="fill:#FDC9A6;" d="M472,164h-97.48c-9.227,0.001-18.004,3.984-24.08,10.928L321.4,208.12
		c-9.202,10.488-8.16,26.45,2.328,35.653c0.285,0.25,0.576,0.494,0.872,0.731c10.747,8.589,26.39,7.007,35.2-3.56L384,212h88
		L472,164z"/>
	<path style="fill:#FDC9A6;" d="M472,260h-40c-13.255,0-24-10.745-24-24c0-13.255,10.745-24,24-24h40V260z"/>
</g>
<path style="fill:#F9D7C0;" d="M432,228h16v16h-16V228z"/>
<g>
	<path style="fill:#69B0BB;" d="M360,284h-48l-16-32h80L360,284z"/>
	<path style="fill:#69B0BB;" d="M312,276h48v40h-48V276z"/>
</g>
<g>
	<path style="fill:#F9E0A0;" d="M312,140h16v16h-16V140z"/>
	<path style="fill:#F9E0A0;" d="M312,108h16v16h-16V108z"/>
	<path style="fill:#F9E0A0;" d="M312,76h16v16h-16V76z"/>
	<path style="fill:#F9E0A0;" d="M256,268h16v16h-16V268z"/>
	<path style="fill:#F9E0A0;" d="M224,268h16v16h-16V268z"/>
	<path style="fill:#F9E0A0;" d="M192,268h16v16h-16V268z"/>
</g>
<g>
	<path style="fill:#A8A8A8;" d="M48,60h16v16H48V60z"/>
	<path style="fill:#A8A8A8;" d="M48,92h16v16H48V92z"/>
	<path style="fill:#A8A8A8;" d="M136,124h16v16h-16V124z"/>
	<path style="fill:#A8A8A8;" d="M168,124h16v16h-16V124z"/>
	<path style="fill:#A8A8A8;" d="M80,92h16v16H80V92z"/>
	<path style="fill:#A8A8A8;" d="M200,92h16v16h-16V92z"/>
	<path style="fill:#A8A8A8;" d="M232,92h16v16h-16V92z"/>
	<path style="fill:#A8A8A8;" d="M160,60h16v16h-16V60z"/>
</g>
<path style="fill:#B9B9B9;" d="M8,388h328v48H8V388z"/>
<g>
	<path style="fill:#CDCDCD;" d="M8,388h328v24H8V388z"/>
	<path style="fill:#CDCDCD;" d="M112,396H48v-96c0-17.673,14.327-32,32-32s32,14.327,32,32V396z"/>
</g>
<circle style="fill:#3B869E;" cx="80" cy="296" r="8"/>
<path style="fill:#CDCDCD;" d="M224,340h32v64h-32V340z"/>
<g>
	<path style="fill:#A8A8A8;" d="M80,60h64v16H80V60z"/>
	<path style="fill:#A8A8A8;" d="M112,92h72v16h-72V92z"/>
	<path style="fill:#A8A8A8;" d="M48,124h72v16H48V124z"/>
	<path style="fill:#A8A8A8;" d="M192,60h56v16h-56V60z"/>
	<path style="fill:#A8A8A8;" d="M200,124h48v16h-48V124z"/>
</g>
<g>
</g>
<g>
</g>
<g>
</g>
<g>
</g>
<g>
</g>
<g>
</g>
<g>
</g>
<g>
</g>
<g>
</g>
<g>
</g>
<g>
</g>
<g>
</g>
<g>
</g>
<g>
</g>
<g>
</g>
</svg>
